<mxfile host="app.diagrams.net" modified="2023-04-19T06:15:27.413Z" agent="Mozilla/5.0 (Macintosh; Intel Mac OS X 10_15_7) AppleWebKit/537.36 (KHTML, like Gecko) Chrome/112.0.0.0 Safari/537.36" version="21.1.9" etag="BcusbI7BsYapklPHGoYQ" type="github">
  <diagram name="第1頁" id="1_i1C99svmCxwu7p0K_5">
    <mxGraphModel>
      <root>
        <mxCell id="0" />
        <mxCell id="1" parent="0" />
      </root>
    </mxGraphModel>
  </diagram>
</mxfile>
